<svg xmlns="http://www.w3.org/2000/svg" xmlns:xlink="http://www.w3.org/1999/xlink" width="71" height="70" viewBox="0 0 71 70"><defs><path id="sm9ka" d="M201.66 32.153c-16.442 0-29.792 13.35-29.792 29.793 0 16.442 13.35 29.793 29.793 29.793 16.442 0 29.793-13.35 29.793-29.793 0-16.443-13.398-29.793-29.793-29.793zm0 64.739c-9.321 0-18.128-3.654-24.686-10.212-6.605-6.606-10.212-15.365-10.212-24.687 0-9.322 3.56-18.176 10.165-24.781C183.532 30.654 192.292 27 201.66 27c9.368 0 18.128 3.654 24.687 10.212 6.605 6.605 10.212 15.365 10.212 24.687 0 9.322-3.654 18.129-10.212 24.687-6.606 6.652-15.365 10.306-24.687 10.306z"/><path id="sm9kb" d="M180.909 88.881V34.682h5.2v54.2z"/><path id="sm9kc" d="M199.084 94.69V30.092h5.2V94.69z"/><path id="sm9kd" d="M217.213 89.537V34.261h5.2v55.276z"/></defs><g><g transform="translate(-166 -27)"><use fill="#232323" xlink:href="#sm9ka"/></g><g transform="translate(-166 -27)"><use fill="#232323" xlink:href="#sm9kb"/></g><g transform="translate(-166 -27)"><use fill="#232323" xlink:href="#sm9kc"/></g><g transform="translate(-166 -27)"><use fill="#232323" xlink:href="#sm9kd"/></g></g></svg>