<svg xmlns="http://www.w3.org/2000/svg" xmlns:xlink="http://www.w3.org/1999/xlink" width="29" height="24" viewBox="0 0 29 24"><defs><path id="zdaha" d="M222.016 3732.35c-1.165.621-2.407 1.164-3.727 1.397-1.087-1.164-2.562-1.863-4.27-1.863-3.26 0-5.823 2.717-5.823 5.978 0 .466.078.932.155 1.398-4.89-.233-9.16-2.64-12.033-6.289a6.489 6.489 0 0 0-.777 3.028c0 2.096 1.01 3.882 2.562 4.969-.931 0-1.863-.311-2.64-.777v.078c0 2.872 2.02 5.357 4.659 5.9a5.006 5.006 0 0 1-1.553.233c-.388 0-.776 0-1.087-.077.776 2.406 2.873 4.114 5.435 4.192a11.383 11.383 0 0 1-7.22 2.562c-.466 0-.932 0-1.398-.078a16.142 16.142 0 0 0 8.928 2.718c10.714 0 16.615-9.162 16.615-17.003v-.776c1.164-.854 2.096-1.864 2.95-3.106-1.01.466-2.174.777-3.339.932 1.165-.854 2.097-2.019 2.562-3.416z"/></defs><g><g transform="translate(-194 -3732)"><use fill="#fff" xlink:href="#zdaha"/></g></g></svg>