<svg xmlns="http://www.w3.org/2000/svg" xmlns:xlink="http://www.w3.org/1999/xlink" width="24" height="24" viewBox="0 0 24 24"><defs><path id="dgs1a" d="M787.417 861.898c0-5.248-4.27-9.518-9.519-9.518-5.248 0-9.518 4.27-9.518 9.518 0 5.248 4.27 9.519 9.518 9.519 5.248 0 9.519-4.27 9.519-9.519zm2.38 0v9.519c0 1.309-1.071 2.38-2.38 2.38h-9.519c-6.556 0-11.898-5.344-11.898-11.899 0-6.556 5.342-11.898 11.898-11.898 6.555 0 11.899 5.342 11.899 11.898zm-10.71-1.189h4.76v2.378h-4.76v4.76h-2.378v-4.76h-4.76v-2.378h4.76v-4.76h2.378z"/></defs><g><g transform="translate(-766 -850)"><use fill="#2b2b2b" xlink:href="#dgs1a"/></g></g></svg>