<svg version="1" xmlns="http://www.w3.org/2000/svg" width="346.667" height="346.667" viewBox="0 0 260.000000 260.000000"><path d="M116.8 9.1C67.9 14.2 25.7 50.6 13 98.5c-2.8 11-3.5 16.9-3.5 32 0 21.9 2.9 34.5 12 53 6.9 14 12.5 21.8 23.9 33 28.9 28.5 67.3 40.2 108.6 32.9 35-6.1 68.6-31.8 85.4-65.2 3.8-7.6 9-22.2 10-28.2.4-1.9 1-5.5 1.4-8 .9-5.8.9-29 0-35.5-1.5-9.9-2-12.1-4.9-20.9-15-44.4-53.6-76.2-99.9-82.2-6.9-.9-21.7-1-29.2-.3zm4.7 120.2c0 56.1-.3 102.4-.7 103-.4.7-3.6.4-10.5-1.1-12.6-2.8-12.1-2.7-12.9-3.5-.4-.4-1.4-.7-2.2-.7-.8 0-5.2-1.8-9.8-4.1l-8.4-4.1v-30.4c0-16.7-.1-43.2-.1-58.9 0-15.7.1-41.9.1-58.4V41.3l7.6-3.8c4.2-2 9.5-4.3 11.8-5.2 5.4-2 20.6-5.2 23.1-5 2 .2 2 1.1 2 102zM152.2 29c9.5 2.1 21.7 6.6 28.2 10.5l4.1 2.5v176.1l-5 2.8c-2.7 1.6-8.1 4.1-11.9 5.6-7.7 3-26.2 7.2-27.2 6.2-.4-.3-.7-46.8-.8-103.2-.1-101.9-.1-102.5 1.9-102.5 1.1 0 5.9.9 10.7 2zM58.4 129.1c-.1 40.1-.4 73.2-.7 73.5-.6.7-8.1-7.9-12.7-14.6-7.9-11.7-13.9-26.5-16.5-40.9-1.4-7.5-1.4-25.6 0-35.1 1.5-10.8 9-29 16.5-40 3-4.4 12.7-16 13.3-16 .1 0 .1 32.9.1 73.1zM212 66.5c5.6 7.1 13.1 20.7 16 29.1 8.8 25.1 7.4 53.9-3.9 77.8-4.5 9.7-12.3 21.5-17.6 26.6l-3.5 3.4v-16.7-61.2-68.8l2.1 1.9c1.2 1 4.3 4.6 6.9 7.9z"/></svg>